<svg width="46" height="36" viewBox="0 0 46 36" fill="none" xmlns="http://www.w3.org/2000/svg">
<path d="M43.6746 31.3348H39.3157C39.1437 31.3348 38.9787 31.2665 38.857 31.1448C38.7354 31.0232 38.667 30.8582 38.667 30.6862C38.667 30.5141 38.7354 30.3491 38.857 30.2275C38.9787 30.1058 39.1437 30.0375 39.3157 30.0375H43.6746C43.7898 30.0373 43.9003 29.9915 43.9817 29.91C44.0632 29.8286 44.109 29.7181 44.1092 29.6029V27.5532C44.1077 26.1481 43.5488 24.8011 42.5553 23.8076C41.5618 22.8141 40.2148 22.2553 38.8098 22.2537H1.2984V28.8505C1.29874 29.1652 1.42391 29.4669 1.64645 29.6895C1.86898 29.912 2.17071 30.0372 2.48542 30.0375H5.24218C5.41421 30.0375 5.5792 30.1058 5.70084 30.2275C5.82249 30.3491 5.89083 30.5141 5.89083 30.6862C5.89083 30.8582 5.82249 31.0232 5.70084 31.1448C5.5792 31.2665 5.41421 31.3348 5.24218 31.3348H2.48542C1.82675 31.3341 1.19525 31.0722 0.729499 30.6064C0.263747 30.1406 0.00178547 29.5091 0.00109863 28.8505V21.6051C0.00109863 21.433 0.0694382 21.2681 0.191083 21.1464C0.312729 21.0248 0.477715 20.9564 0.649747 20.9564H38.8098C40.5587 20.9583 42.2356 21.6539 43.4723 22.8907C44.709 24.1274 45.4046 25.8042 45.4065 27.5532V29.6029C45.406 30.0621 45.2234 30.5023 44.8987 30.827C44.574 31.1517 44.1338 31.3343 43.6746 31.3348Z" fill="white"/>
<path d="M31.3503 31.3349H13.4022C13.2302 31.3349 13.0652 31.2666 12.9435 31.1449C12.8219 31.0233 12.7535 30.8583 12.7535 30.6862C12.7535 30.5142 12.8219 30.3492 12.9435 30.2276C13.0652 30.1059 13.2302 30.0376 13.4022 30.0376H31.3503C31.5223 30.0376 31.6873 30.1059 31.8089 30.2276C31.9306 30.3492 31.9989 30.5142 31.9989 30.6862C31.9989 30.8583 31.9306 31.0233 31.8089 31.1449C31.6873 31.2666 31.5223 31.3349 31.3503 31.3349Z" fill="white"/>
<path d="M0.649786 22.2571C0.602228 22.257 0.554817 22.2518 0.50838 22.2415C0.425192 22.2231 0.346448 22.1884 0.276648 22.1396C0.206847 22.0907 0.147358 22.0286 0.101579 21.9567C0.0557992 21.8848 0.0246264 21.8047 0.00984083 21.7208C-0.00494471 21.6368 -0.00305316 21.5508 0.0154075 21.4677C0.844033 18.2415 2.76112 15.4003 5.44265 13.4244C6.297 12.8356 7.31099 12.5221 8.3486 12.526H24.7296C25.6118 12.5271 26.4844 12.7102 27.2926 13.064C28.1008 13.4178 28.8272 13.9347 29.4264 14.5823L35.5043 21.1673C35.566 21.2291 35.6147 21.3027 35.6473 21.3837C35.6799 21.4647 35.6958 21.5515 35.6941 21.6388C35.6923 21.7262 35.673 21.8122 35.6372 21.8919C35.6014 21.9715 35.5498 22.0432 35.4857 22.1024C35.4215 22.1617 35.3461 22.2074 35.2638 22.2368C35.1816 22.2661 35.0942 22.2786 35.007 22.2734C34.9199 22.2683 34.8346 22.2455 34.7564 22.2066C34.6783 22.1677 34.6087 22.1133 34.5521 22.0469L28.4768 15.4638C27.999 14.9476 27.4198 14.5357 26.7755 14.2536C26.1311 13.9716 25.4355 13.8255 24.7322 13.8246H8.34925C7.57465 13.8218 6.81774 14.0561 6.18016 14.496C2.34341 17.1444 1.29325 21.7031 1.28352 21.7492C1.25147 21.8933 1.1712 22.0222 1.05597 22.1146C0.940744 22.2069 0.797454 22.2572 0.649786 22.2571Z" fill="white"/>
<path d="M20.758 22.2571C20.6032 22.2568 20.4536 22.2013 20.3362 22.1004C20.2187 21.9995 20.1413 21.86 20.1177 21.707L18.8205 13.2746C18.8042 13.1889 18.8054 13.1008 18.8239 13.0156C18.8425 12.9304 18.878 12.8499 18.9284 12.7787C18.9788 12.7076 19.043 12.6473 19.1173 12.6015C19.1915 12.5558 19.2742 12.5254 19.3604 12.5124C19.4466 12.4993 19.5345 12.5037 19.619 12.5254C19.7034 12.547 19.7827 12.5855 19.8519 12.6385C19.9212 12.6915 19.979 12.7579 20.022 12.8338C20.065 12.9096 20.0923 12.9933 20.1022 13.08L21.3995 21.5124C21.4133 21.6047 21.407 21.6988 21.3811 21.7885C21.3552 21.8781 21.3103 21.9611 21.2494 22.0318C21.1885 22.1025 21.1131 22.1592 21.0283 22.1981C20.9435 22.2369 20.8513 22.2571 20.758 22.2571Z" fill="white"/>
<path d="M8.43365 22.2571C8.36897 22.2572 8.30465 22.2473 8.24295 22.2279C8.07862 22.1773 7.94108 22.0636 7.86056 21.9117C7.78004 21.7598 7.76313 21.5821 7.81354 21.4177L10.4081 12.9853C10.4332 12.9039 10.474 12.8282 10.5283 12.7625C10.5826 12.6968 10.6493 12.6425 10.7246 12.6027C10.7999 12.5628 10.8823 12.5381 10.9671 12.5301C11.0519 12.5221 11.1375 12.5308 11.219 12.5559C11.3004 12.5809 11.3761 12.6218 11.4417 12.6761C11.5074 12.7304 11.5617 12.7971 11.6016 12.8724C11.6415 12.9476 11.6661 13.0301 11.6741 13.1149C11.6822 13.1997 11.6734 13.2853 11.6484 13.3667L9.05376 21.7991C9.01297 21.9317 8.93073 22.0478 8.81912 22.1302C8.7075 22.2126 8.5724 22.2571 8.43365 22.2571Z" fill="white"/>
<path d="M35.3389 35.5121C34.422 35.5123 33.5257 35.2405 32.7632 34.7312C32.0007 34.2218 31.4064 33.4979 31.0555 32.6508C30.7045 31.8037 30.6126 30.8715 30.7914 29.9722C30.9702 29.0729 31.4117 28.2468 32.06 27.5984C32.7083 26.95 33.5343 26.5084 34.4336 26.3295C35.3329 26.1506 36.2651 26.2423 37.1122 26.5932C37.9594 26.944 38.6834 27.5382 39.1929 28.3006C39.7023 29.063 39.9742 29.9593 39.9742 30.8762C39.9728 32.1052 39.484 33.2835 38.6151 34.1526C37.7461 35.0217 36.5679 35.5106 35.3389 35.5121ZM35.3389 27.5383C34.6786 27.5382 34.033 27.7339 33.4839 28.1007C32.9347 28.4675 32.5067 28.9889 32.254 29.599C32.0012 30.209 31.935 30.8804 32.0638 31.5281C32.1926 32.1758 32.5106 32.7707 32.9775 33.2376C33.4445 33.7046 34.0394 34.0226 34.6871 34.1514C35.3348 34.2802 36.0061 34.214 36.6162 33.9612C37.2263 33.7085 37.7477 33.2804 38.1145 32.7313C38.4813 32.1822 38.677 31.5366 38.6769 30.8762C38.6762 29.9911 38.3244 29.1423 37.6986 28.5163C37.0727 27.8902 36.2241 27.538 35.3389 27.537V27.5383Z" fill="white"/>
<path d="M35.3389 33.0545C34.9078 33.0546 34.4864 32.9269 34.1279 32.6875C33.7694 32.4481 33.49 32.1077 33.3249 31.7095C33.1598 31.3113 33.1166 30.873 33.2006 30.4502C33.2846 30.0274 33.4922 29.639 33.7969 29.3341C34.1017 29.0293 34.4901 28.8216 34.9128 28.7375C35.3356 28.6533 35.7739 28.6965 36.1722 28.8614C36.5705 29.0263 36.9109 29.3057 37.1504 29.6641C37.3899 30.0225 37.5177 30.4439 37.5177 30.875C37.5172 31.4528 37.2875 32.0067 36.879 32.4153C36.4706 32.8239 35.9167 33.0538 35.3389 33.0545ZM35.3389 29.9935C35.1644 29.9934 34.9937 30.045 34.8486 30.1419C34.7034 30.2388 34.5902 30.3766 34.5234 30.5378C34.4565 30.699 34.439 30.8764 34.473 31.0476C34.5071 31.2188 34.5911 31.376 34.7145 31.4995C34.8379 31.6229 34.9952 31.7069 35.1663 31.7409C35.3375 31.7749 35.5149 31.7574 35.6762 31.6906C35.8374 31.6237 35.9752 31.5105 36.072 31.3654C36.1689 31.2202 36.2206 31.0495 36.2204 30.875C36.2201 30.6413 36.1271 30.4173 35.9619 30.2521C35.7966 30.0868 35.5726 29.9938 35.3389 29.9935Z" fill="white"/>
<path d="M9.32289 33.0545C8.89184 33.0545 8.47046 32.9267 8.11205 32.6872C7.75364 32.4477 7.47429 32.1073 7.30933 31.7091C7.14438 31.3108 7.10122 30.8726 7.18531 30.4498C7.26941 30.0271 7.47698 29.6387 7.78178 29.3339C8.08659 29.0291 8.47493 28.8215 8.8977 28.7374C9.32047 28.6533 9.75869 28.6965 10.1569 28.8615C10.5552 29.0264 10.8956 29.3058 11.135 29.6642C11.3745 30.0226 11.5024 30.444 11.5024 30.875C11.5018 31.4529 11.2721 32.0069 10.8634 32.4156C10.4548 32.8242 9.90076 33.054 9.32289 33.0545ZM9.32289 29.9935C9.14839 29.9935 8.97781 30.0453 8.83272 30.1422C8.68764 30.2392 8.57457 30.377 8.50782 30.5382C8.44107 30.6995 8.42364 30.8769 8.45773 31.048C8.49182 31.2191 8.5759 31.3763 8.69934 31.4997C8.82278 31.623 8.98002 31.707 9.15119 31.741C9.32236 31.7749 9.49975 31.7574 9.66093 31.6905C9.82211 31.6236 9.95984 31.5105 10.0567 31.3653C10.1536 31.2201 10.2052 31.0495 10.2051 30.875C10.2049 30.6412 10.1119 30.417 9.94645 30.2517C9.78103 30.0864 9.55674 29.9935 9.32289 29.9935Z" fill="white"/>
<path d="M9.32291 35.6082C8.38638 35.6082 7.47089 35.3305 6.69221 34.8102C5.91352 34.2899 5.3066 33.5504 4.94821 32.6851C4.58982 31.8199 4.49605 30.8678 4.67875 29.9493C4.86146 29.0308 5.31244 28.1871 5.97466 27.5248C6.63688 26.8626 7.4806 26.4116 8.39913 26.2289C9.31765 26.0462 10.2697 26.14 11.135 26.4984C12.0002 26.8568 12.7397 27.4637 13.26 28.2424C13.7803 29.0211 14.058 29.9366 14.058 30.8731C14.0572 32.1287 13.558 33.3326 12.6702 34.2204C11.7824 35.1082 10.5785 35.6074 9.32291 35.6082ZM9.32291 27.4391C8.64297 27.4391 7.97829 27.6408 7.41295 28.0185C6.8476 28.3963 6.40696 28.9332 6.14676 29.5614C5.88656 30.1896 5.81848 30.8808 5.95113 31.5477C6.08377 32.2145 6.4112 32.8271 6.89199 33.3079C7.37278 33.7887 7.98534 34.1161 8.65222 34.2488C9.31909 34.3814 10.0103 34.3133 10.6385 34.0531C11.2667 33.7929 11.8036 33.3523 12.1814 32.7869C12.5591 32.2216 12.7607 31.5569 12.7607 30.877C12.7607 30.4255 12.6718 29.9785 12.4991 29.5614C12.3263 29.1443 12.0731 28.7653 11.7538 28.4461C11.4346 28.1268 11.0556 27.8736 10.6385 27.7008C10.2214 27.5281 9.77437 27.4391 9.32291 27.4391Z" fill="white"/>
<path d="M25.947 25.5003H24.6497C24.4777 25.5003 24.3127 25.432 24.1911 25.3103C24.0694 25.1887 24.0011 25.0237 24.0011 24.8516C24.0011 24.6796 24.0694 24.5146 24.1911 24.393C24.3127 24.2713 24.4777 24.203 24.6497 24.203H25.947C26.1191 24.203 26.2841 24.2713 26.4057 24.393C26.5274 24.5146 26.5957 24.6796 26.5957 24.8516C26.5957 25.0237 26.5274 25.1887 26.4057 25.3103C26.2841 25.432 26.1191 25.5003 25.947 25.5003Z" fill="white"/>
<path d="M18.4876 25.5003H17.1903C17.0182 25.5003 16.8533 25.432 16.7316 25.3103C16.61 25.1887 16.5416 25.0237 16.5416 24.8516C16.5416 24.6796 16.61 24.5146 16.7316 24.393C16.8533 24.2713 17.0182 24.203 17.1903 24.203H18.4876C18.6596 24.203 18.8246 24.2713 18.9462 24.393C19.0679 24.5146 19.1362 24.6796 19.1362 24.8516C19.1362 25.0237 19.0679 25.1887 18.9462 25.3103C18.8246 25.432 18.6596 25.5003 18.4876 25.5003Z" fill="white"/>
<path d="M20.542 13.8246H12.515C12.3429 13.8246 12.178 13.7563 12.0563 13.6346C11.9347 13.513 11.8663 13.348 11.8663 13.176V10.5814C11.8663 10.4094 11.9347 10.2444 12.0563 10.1227C12.178 10.0011 12.3429 9.93274 12.515 9.93274H20.542C20.714 9.93274 20.879 10.0011 21.0007 10.1227C21.1223 10.2444 21.1907 10.4094 21.1907 10.5814V13.176C21.1907 13.348 21.1223 13.513 21.0007 13.6346C20.879 13.7563 20.714 13.8246 20.542 13.8246ZM13.1636 12.5273H19.8934V11.23H13.1636V12.5273Z" fill="white"/>
<path d="M26.3655 11.23H6.69137C6.51934 11.23 6.35435 11.1617 6.23271 11.0401C6.11106 10.9184 6.04272 10.7534 6.04272 10.5814C6.04272 10.4094 6.11106 10.2444 6.23271 10.1227C6.35435 10.0011 6.51934 9.93274 6.69137 9.93274H26.3655C26.5376 9.93274 26.7026 10.0011 26.8242 10.1227C26.9458 10.2444 27.0142 10.4094 27.0142 10.5814C27.0142 10.7534 26.9458 10.9184 26.8242 11.0401C26.7026 11.1617 26.5376 11.23 26.3655 11.23Z" fill="white"/>
<path d="M24.7796 11.2275H13.0247C12.8527 11.2275 12.6877 11.1591 12.5661 11.0375C12.4444 10.9158 12.3761 10.7508 12.3761 10.5788C12.3761 10.4068 12.4444 10.2418 12.5661 10.1202C12.6877 9.99851 12.8527 9.93017 13.0247 9.93017H24.1309V1.6787C24.1309 1.57755 24.0907 1.48054 24.0192 1.40901C23.9477 1.33748 23.8507 1.2973 23.7495 1.2973H14.0548C13.9537 1.29747 13.8568 1.33771 13.7853 1.4092C13.7138 1.48069 13.6736 1.5776 13.6734 1.6787V4.05276C13.6734 4.22479 13.6051 4.38978 13.4834 4.51142C13.3618 4.63307 13.1968 4.70141 13.0247 4.70141C12.8527 4.70141 12.6877 4.63307 12.5661 4.51142C12.4444 4.38978 12.3761 4.22479 12.3761 4.05276V1.6787C12.3766 1.23364 12.5536 0.806956 12.8683 0.49225C13.1831 0.177543 13.6097 0.000515019 14.0548 0H23.7476C24.193 -2.98556e-07 24.6201 0.1768 24.9353 0.491562C25.2504 0.806324 25.4277 1.2333 25.4282 1.6787V10.5788C25.4282 10.7508 25.3599 10.9158 25.2382 11.0375C25.1166 11.1591 24.9516 11.2275 24.7796 11.2275Z" fill="white"/>
<path d="M18.9014 11.23H8.68844C8.51641 11.23 8.35143 11.1617 8.22978 11.04C8.10813 10.9184 8.03979 10.7534 8.03979 10.5814V5.08149C8.04031 4.6362 8.21739 4.20928 8.5322 3.89435C8.847 3.57942 9.27385 3.40218 9.71915 3.40149H17.8701C18.3155 3.402 18.7425 3.57917 19.0574 3.89412C19.3724 4.20907 19.5496 4.63608 19.5501 5.08149V10.5814C19.5501 10.7534 19.4817 10.9184 19.3601 11.04C19.2384 11.1617 19.0734 11.23 18.9014 11.23ZM9.33709 9.93273H18.2528V5.08149C18.2526 4.98004 18.2122 4.8828 18.1405 4.81107C18.0688 4.73933 17.9715 4.69896 17.8701 4.69879H9.71915C9.61776 4.69896 9.52058 4.73935 9.44895 4.81111C9.37732 4.88286 9.33709 4.9801 9.33709 5.08149V9.93273Z" fill="white"/>
</svg>
